<mxfile host="app.diagrams.net" modified="2022-03-10T23:43:51.386Z" agent="5.0 (Windows NT 10.0; Win64; x64) AppleWebKit/537.36 (KHTML, like Gecko) Chrome/99.0.4844.51 Safari/537.36" etag="diPLlOGNhutifUC_db-8" version="17.1.1" type="github">
  <diagram id="hxb1gwyLIHcsYFeheSlV" name="Page-1">
    <mxGraphModel dx="1038" dy="585" grid="1" gridSize="10" guides="1" tooltips="1" connect="1" arrows="1" fold="1" page="1" pageScale="1" pageWidth="827" pageHeight="1169" math="0" shadow="0">
      <root>
        <mxCell id="0" />
        <mxCell id="1" parent="0" />
        <mxCell id="gl3lg-BE7d-I6d4YSm-Q-3" style="edgeStyle=orthogonalEdgeStyle;rounded=0;orthogonalLoop=1;jettySize=auto;html=1;exitX=0;exitY=0.5;exitDx=0;exitDy=0;endArrow=oval;endFill=0;strokeColor=none;" edge="1" parent="1" source="gl3lg-BE7d-I6d4YSm-Q-1" target="gl3lg-BE7d-I6d4YSm-Q-4">
          <mxGeometry relative="1" as="geometry">
            <mxPoint x="-20" y="180" as="targetPoint" />
          </mxGeometry>
        </mxCell>
        <mxCell id="gl3lg-BE7d-I6d4YSm-Q-1" value="Factura" style="ellipse;whiteSpace=wrap;html=1;" vertex="1" parent="1">
          <mxGeometry x="180" y="130" width="120" height="80" as="geometry" />
        </mxCell>
        <mxCell id="gl3lg-BE7d-I6d4YSm-Q-2" value="" style="endArrow=none;html=1;rounded=0;exitX=1;exitY=0.5;exitDx=0;exitDy=0;entryX=-0.007;entryY=0.673;entryDx=0;entryDy=0;entryPerimeter=0;" edge="1" parent="1" source="gl3lg-BE7d-I6d4YSm-Q-4" target="gl3lg-BE7d-I6d4YSm-Q-1">
          <mxGeometry width="50" height="50" relative="1" as="geometry">
            <mxPoint x="120" y="220" as="sourcePoint" />
            <mxPoint x="170" y="170" as="targetPoint" />
          </mxGeometry>
        </mxCell>
        <mxCell id="gl3lg-BE7d-I6d4YSm-Q-4" value="fecha" style="ellipse;whiteSpace=wrap;html=1;" vertex="1" parent="1">
          <mxGeometry x="30" y="180" width="50" height="40" as="geometry" />
        </mxCell>
        <mxCell id="gl3lg-BE7d-I6d4YSm-Q-5" value="" style="endArrow=none;html=1;rounded=0;exitX=1;exitY=0.5;exitDx=0;exitDy=0;entryX=0;entryY=0;entryDx=0;entryDy=0;" edge="1" parent="1" source="gl3lg-BE7d-I6d4YSm-Q-6" target="gl3lg-BE7d-I6d4YSm-Q-1">
          <mxGeometry width="50" height="50" relative="1" as="geometry">
            <mxPoint x="130" y="230" as="sourcePoint" />
            <mxPoint x="180" y="180" as="targetPoint" />
          </mxGeometry>
        </mxCell>
        <mxCell id="gl3lg-BE7d-I6d4YSm-Q-6" value="producto" style="ellipse;whiteSpace=wrap;html=1;" vertex="1" parent="1">
          <mxGeometry x="30" y="70" width="50" height="40" as="geometry" />
        </mxCell>
        <mxCell id="gl3lg-BE7d-I6d4YSm-Q-7" value="" style="endArrow=none;html=1;rounded=0;exitX=1;exitY=0.5;exitDx=0;exitDy=0;" edge="1" parent="1" source="gl3lg-BE7d-I6d4YSm-Q-8" target="gl3lg-BE7d-I6d4YSm-Q-1">
          <mxGeometry width="50" height="50" relative="1" as="geometry">
            <mxPoint x="140" y="240" as="sourcePoint" />
            <mxPoint x="190" y="190" as="targetPoint" />
          </mxGeometry>
        </mxCell>
        <mxCell id="gl3lg-BE7d-I6d4YSm-Q-8" value="id" style="ellipse;whiteSpace=wrap;html=1;" vertex="1" parent="1">
          <mxGeometry x="20" y="130" width="50" height="40" as="geometry" />
        </mxCell>
        <mxCell id="gl3lg-BE7d-I6d4YSm-Q-9" value="" style="endArrow=none;html=1;rounded=0;exitX=1;exitY=0.5;exitDx=0;exitDy=0;entryX=0.163;entryY=0.942;entryDx=0;entryDy=0;entryPerimeter=0;" edge="1" parent="1" source="gl3lg-BE7d-I6d4YSm-Q-10" target="gl3lg-BE7d-I6d4YSm-Q-1">
          <mxGeometry width="50" height="50" relative="1" as="geometry">
            <mxPoint x="140" y="300" as="sourcePoint" />
            <mxPoint x="190" y="250" as="targetPoint" />
          </mxGeometry>
        </mxCell>
        <mxCell id="gl3lg-BE7d-I6d4YSm-Q-10" value="subtotal" style="ellipse;whiteSpace=wrap;html=1;" vertex="1" parent="1">
          <mxGeometry x="60" y="230" width="50" height="40" as="geometry" />
        </mxCell>
        <mxCell id="gl3lg-BE7d-I6d4YSm-Q-11" value="" style="endArrow=none;html=1;rounded=0;exitX=1;exitY=0.5;exitDx=0;exitDy=0;entryX=0.283;entryY=0.028;entryDx=0;entryDy=0;entryPerimeter=0;" edge="1" parent="1" source="gl3lg-BE7d-I6d4YSm-Q-12" target="gl3lg-BE7d-I6d4YSm-Q-1">
          <mxGeometry width="50" height="50" relative="1" as="geometry">
            <mxPoint x="140" y="240" as="sourcePoint" />
            <mxPoint x="220" y="140" as="targetPoint" />
          </mxGeometry>
        </mxCell>
        <mxCell id="gl3lg-BE7d-I6d4YSm-Q-12" value="precio" style="ellipse;whiteSpace=wrap;html=1;" vertex="1" parent="1">
          <mxGeometry x="90" y="40" width="50" height="40" as="geometry" />
        </mxCell>
        <mxCell id="gl3lg-BE7d-I6d4YSm-Q-13" value="" style="endArrow=none;html=1;rounded=0;exitX=1;exitY=0.5;exitDx=0;exitDy=0;entryX=0.5;entryY=0;entryDx=0;entryDy=0;" edge="1" parent="1" source="gl3lg-BE7d-I6d4YSm-Q-14" target="gl3lg-BE7d-I6d4YSm-Q-1">
          <mxGeometry width="50" height="50" relative="1" as="geometry">
            <mxPoint x="380" y="198.28" as="sourcePoint" />
            <mxPoint x="300" y="130" as="targetPoint" />
          </mxGeometry>
        </mxCell>
        <mxCell id="gl3lg-BE7d-I6d4YSm-Q-14" value="cantidad" style="ellipse;whiteSpace=wrap;html=1;" vertex="1" parent="1">
          <mxGeometry x="160" y="20" width="50" height="40" as="geometry" />
        </mxCell>
        <mxCell id="gl3lg-BE7d-I6d4YSm-Q-15" value="Pertenece" style="rhombus;whiteSpace=wrap;html=1;" vertex="1" parent="1">
          <mxGeometry x="360" y="140" width="90" height="60" as="geometry" />
        </mxCell>
        <mxCell id="gl3lg-BE7d-I6d4YSm-Q-16" value="" style="endArrow=none;html=1;rounded=0;exitX=1;exitY=0.5;exitDx=0;exitDy=0;entryX=0;entryY=0.5;entryDx=0;entryDy=0;" edge="1" parent="1" source="gl3lg-BE7d-I6d4YSm-Q-1" target="gl3lg-BE7d-I6d4YSm-Q-15">
          <mxGeometry width="50" height="50" relative="1" as="geometry">
            <mxPoint x="320" y="220" as="sourcePoint" />
            <mxPoint x="370" y="170" as="targetPoint" />
          </mxGeometry>
        </mxCell>
        <mxCell id="gl3lg-BE7d-I6d4YSm-Q-18" value="" style="endArrow=none;html=1;rounded=0;entryX=1;entryY=0.5;entryDx=0;entryDy=0;" edge="1" parent="1" target="gl3lg-BE7d-I6d4YSm-Q-15">
          <mxGeometry width="50" height="50" relative="1" as="geometry">
            <mxPoint x="530" y="170" as="sourcePoint" />
            <mxPoint x="440" y="180" as="targetPoint" />
          </mxGeometry>
        </mxCell>
        <mxCell id="gl3lg-BE7d-I6d4YSm-Q-19" value="Cliente" style="ellipse;whiteSpace=wrap;html=1;" vertex="1" parent="1">
          <mxGeometry x="530" y="130" width="120" height="80" as="geometry" />
        </mxCell>
      </root>
    </mxGraphModel>
  </diagram>
</mxfile>
